<svg version="1" xmlns="http://www.w3.org/2000/svg" width="400" height="400" viewBox="0 0 300.000000 300.000000"><path d="M108.7 92.1c-4.6 1.1-11.8 5.9-14.5 9.7-1.1 1.5-5.2 8.9-9.2 16.5L77.8 132H52v39.9l7.8.3 7.7.3.6 8.5c.6 10 2.8 15.1 8.9 20.2 3.9 3.4 12.1 6.8 16.4 6.8 6 0 13-3.2 18.2-8.4 6-6 7.4-9.8 7.4-19.7v-6.6l6.1-.7c3.4-.3 15.9-.6 27.8-.6h21.6v8.2c0 7.3.4 8.9 2.9 13.6 5.1 9.2 16.4 15.2 25.8 13.8 6.6-1 14.7-6.2 18.1-11.7 3.8-6.2 5.9-14.3 4.8-19l-.8-3.6 6.6-.7c3.6-.3 8.3-.6 10.4-.6 3.5 0 3.7-.2 3.7-3 0-1.7.5-3.9 1.2-5 .9-1.4.9-2.4.1-4.2-.7-1.3-1.3-5.3-1.5-8.9-.4-7.6-2.8-12-8.6-16-3.3-2.3-4.5-2.4-20.1-2.7l-16.6-.3-10.5-15.6c-16.7-24.8-17.8-25.3-53.4-25.2-13.3.1-25.8.5-27.9 1zm-7.3 77.7c3.6 2.1 6.6 7.6 6.6 12 0 7-5.5 13.2-12.4 13.9-14.2 1.6-21.9-14.3-11.7-24.1 4.9-4.7 11.2-5.4 17.5-1.8zM204 168c2.9 0 8.8 5.7 9.6 9.3 2.4 10.5-3.5 18.7-13.6 18.7-8.1 0-14-5.9-14-14.1 0-3.8.6-5.2 3.6-8.7 3.4-4 8.4-6.5 11.2-5.6.8.2 2.2.4 3.2.4z"/><path d="M90.6 180.6c-.9 2.2 1.2 4.6 3.8 4.2 1.5-.2 2.1-1 2.1-2.8 0-2-.6-2.6-2.6-2.8-1.8-.2-2.9.3-3.3 1.4zM197.4 180.4c-1 2.6.4 4.8 2.8 4.4 1.7-.2 2.3-1 2.3-2.8 0-1.8-.6-2.6-2.3-2.8-1.3-.2-2.5.3-2.8 1.2z"/></svg>